<svg xmlns="http://www.w3.org/2000/svg" width="640" height="512" viewBox="0 0 640 512">
  <path d="m319.5.015399999916553c-96.800003051757812.281300000846386-175.5,79.874599389731884-175.5,177.384593896567822,0,42.910003662109375,15.470001220703125,84.339996337890625,43.550003051757812,116.600006103515625,13.330001831054688,15.30999755859375,35.839996337890625,49.589996337890625,43.729995727539062,76.019989013671875,1.0780029296875,8.68701171875,8.843994140625,14.6199951171875,17.639999389648438,13.709991455078125,8.702987670898438-.96868896484375,14.979995727539062-8.964996337890625,14.110000610351562-17.649993896484375l-.609405517578125-3.31201171875c-10.30999755859375-34.970001220703125-36-72.839996337890625-50.729995727539062-89.769989013671875-22.9906005859375-26.49798583984375-35.690597534179688-60.397979736328125-35.690597534179688-95.597991943359375,0-81.239997863769531,63.050003051757812-145.100006103515625,143.5-145.300003051757812h.5c38.1300048828125,0,74.04998779296875,14.869998931884766,101.20001220703125,41.94000244140625,27.5999755859375,27.460006713867188,42.79998779296875,64.160003662109375,42.79998779296875,103.360000610351562,0,35.19000244140625-12.670013427734375,69.149993896484375-35.66998291015625,95.6199951171875-14.75,16.94000244140625-40.44000244140625,54.79998779296875-50.75,89.769989013671875l-.625,3.343994140625c-1.0469970703125,8.75,4.93798828125,17.589996337890625,13.670013427734375,18.67999267578125.78131103515625.09381103515625,1.531005859375.15618896484375,2.281005859375.15618896484375,7.7969970703125,0,14.3599853515625-5.121002197265625,15.3599853515625-13.1199951171875,8.343994140625-28.25,30.860015869140625-62.529998779296875,44.20001220703125-77.839996337890625,28.033966064453125-32.310150146484375,43.533966064453125-73.710159301757812,43.533966064453125-116.61016845703125,0-47.709991455078125-18.54998779296875-92.489997863769531-52.220001220703125-126.099998474121094C410.5,18.079999923706055,365.600006103515625-1.172000050544739,319.5.015399999916553Zm63.600006103515625,415.084606103599072h-127.100006103515625c-8.845993041992188,0-16.009994506835938,7.17999267578125-16,16.029998779296875l.074600219726562,22.339996337890625c.009796142578125,6.269989013671875,1.884002685546875,12.459991455078125,5.358993530273438,17.67999267578125l17.089996337890625,25.69000244140625c5.225006103515625,7.855010986328125,17.220001220703125,14.279998779296875,26.649993896484375,14.279998779296875h61.720001220703125c9.417999267578125,0,21.410003662109375-6.42999267578125,26.6300048828125-14.269989013671875l17.089996337890625-25.69000244140625c2.9530029296875-4.441009521484375,5.35101318359375-12.3599853515625,5.3590087890625-17.67999267578125l-.025390625-22.339996337890625c-.847198486328125-7.94000244140625-7.147216796875-16.040008544921875-16.847198486328125-16.040008544921875Zm-15.20001220703125,39.29998779296875l-16.110015869140625,24.45001220703125c-.476593017578125.4375-1.686004638671875,1.08599853515625-.8671875,1.11700439453125l-60.290008544921875.1171875c-.423797607421875-.101593017578125-1.13800048828125-.277313232421875-1.423004150390625-.277313232421875-.140594482421875,0-.134796142578125-.226593017578125,0,0l-17.100006103515625-25.480010986328125-.009796142578125-6.36700439453125h95.94000244140625l.00390625,5.17999267578125c-.143890380859375.46014404296875-.3438720703125,1.2601318359375-.143890380859375,1.2601318359375,0,0-.100006103515625.100006103515625,0,0Zm-31.899993896484375-374.379997253417969c0-8.840003967285156-7.156005859375-16-16-16-61.75,0-112,50.239997863769531-112,111.099998474121094,0,8.843994140625,7.156005859375,16,16,16s16-7.15899658203125,16-16c0-44.100006103515625,35.8800048828125-79.099998474121094,80-79.099998474121094,8.79998779296875-.009994506835938,16-7.159996032714844,16-16Z" fill="currentColor"/>
</svg>